<svg xmlns="http://www.w3.org/2000/svg" xmlns:xlink="http://www.w3.org/1999/xlink" id="Layer_1" x="0px" y="0px" viewBox="0 0 283.5 85" style="enable-background:new 0 0 283.5 85;" xml:space="preserve">
<style type="text/css">
	.st0{fill:#FFFFFF;}
	.st1{fill:#020203;}
	.st2{fill:#2EAE7A;}
	.st3{fill:#015229;}
	.st4{enable-background:new    ;}
</style>
<g>
	<path class="st0" d="M10.7,84.5c-5.6,0-10.2-4.6-10.2-10.2V10.7c0-5.6,4.6-10.2,10.2-10.2h262c5.6,0,10.2,4.6,10.2,10.2v63.6   c0,5.6-4.6,10.2-10.2,10.2C272.7,84.5,10.7,84.5,10.7,84.5z"></path>
	<path d="M272.7,1c5.4,0,9.7,4.4,9.7,9.7v63.6c0,5.4-4.4,9.7-9.7,9.7h-262C5.4,84,1,79.7,1,74.3V10.7C1,5.4,5.4,1,10.7,1H272.7    M272.7,0h-262C4.8,0,0,4.8,0,10.7v63.6C0,80.2,4.8,85,10.7,85h262c5.9,0,10.7-4.8,10.7-10.7V10.7C283.5,4.8,278.6,0,272.7,0   L272.7,0z"></path>
</g>
<g>
	<path class="st1" d="M169.7,33.7h13.4v2.5h-5.3v14.1h-2.9V36.2h-5.3L169.7,33.7L169.7,33.7z M182.5,38.3h2.5v2.3l0,0   c0.1-0.3,0.2-0.6,0.5-0.9c0.2-0.3,0.5-0.6,0.8-0.8c0.3-0.3,0.7-0.5,1.1-0.6c0.4-0.2,0.8-0.2,1.2-0.2c0.3,0,0.5,0,0.6,0s0.2,0,0.4,0   v2.5c-0.2,0-0.4-0.1-0.6-0.1c-0.2,0-0.4,0-0.6,0c-0.4,0-0.9,0.1-1.3,0.3c-0.4,0.2-0.7,0.4-1,0.8c-0.3,0.4-0.5,0.8-0.7,1.3   s-0.3,1.1-0.3,1.8v5.7h-2.6L182.5,38.3L182.5,38.3z M201.7,50.3h-2.6v-1.7l0,0c-0.3,0.6-0.8,1.1-1.4,1.4c-0.6,0.4-1.3,0.5-2,0.5   c-1.6,0-2.7-0.4-3.4-1.2s-1.1-2-1.1-3.5v-7.6h2.6v7.4c0,1.1,0.2,1.8,0.6,2.2c0.4,0.4,1,0.7,1.7,0.7c0.6,0,1-0.1,1.4-0.3   s0.7-0.4,0.9-0.7s0.4-0.6,0.5-1s0.2-0.8,0.2-1.3v-7h2.6V50.3z M206.2,46.4c0.1,0.8,0.4,1.3,0.9,1.6s1.1,0.5,1.8,0.5   c0.2,0,0.5,0,0.8-0.1c0.3,0,0.6-0.1,0.9-0.2c0.3-0.1,0.5-0.3,0.7-0.5s0.3-0.5,0.2-0.8c0-0.3-0.1-0.6-0.4-0.8   c-0.2-0.2-0.5-0.4-0.9-0.5s-0.8-0.2-1.2-0.3s-0.9-0.2-1.4-0.3s-1-0.2-1.4-0.4c-0.5-0.2-0.9-0.4-1.2-0.6c-0.4-0.3-0.7-0.6-0.9-1   s-0.3-0.9-0.3-1.5c0-0.7,0.2-1.2,0.5-1.6c0.3-0.4,0.7-0.8,1.2-1.1s1-0.5,1.6-0.6s1.2-0.2,1.7-0.2c0.6,0,1.2,0.1,1.8,0.2   c0.6,0.1,1.1,0.3,1.5,0.6c0.5,0.3,0.8,0.7,1.1,1.1s0.5,1,0.6,1.7H211c-0.1-0.6-0.4-1.1-0.9-1.3s-1-0.3-1.6-0.3c-0.2,0-0.4,0-0.7,0   s-0.5,0.1-0.7,0.2c-0.2,0.1-0.4,0.2-0.6,0.4c-0.2,0.2-0.2,0.4-0.2,0.6c0,0.3,0.1,0.6,0.3,0.8s0.5,0.4,0.9,0.5s0.8,0.2,1.2,0.3   c0.5,0.1,0.9,0.2,1.4,0.3s0.9,0.2,1.4,0.4s0.9,0.4,1.2,0.6c0.4,0.3,0.7,0.6,0.9,1s0.3,0.9,0.3,1.5c0,0.7-0.2,1.3-0.5,1.8   s-0.7,0.9-1.3,1.2c-0.5,0.3-1.1,0.5-1.7,0.7c-0.6,0.1-1.3,0.2-1.9,0.2c-0.8,0-1.5-0.1-2.1-0.3s-1.2-0.4-1.7-0.8   c-0.5-0.4-0.8-0.8-1.1-1.3s-0.4-1.1-0.4-1.8L206.2,46.4L206.2,46.4z M214.9,38.3h2v-3.6h2.6v3.6h2.4v2h-2.4v6.4c0,0.3,0,0.5,0,0.7   s0.1,0.4,0.2,0.5c0.1,0.1,0.2,0.2,0.4,0.3s0.4,0.1,0.7,0.1c0.2,0,0.4,0,0.6,0c0.2,0,0.4,0,0.6-0.1v2c-0.3,0-0.6,0.1-0.9,0.1   c-0.3,0-0.6,0-0.9,0c-0.7,0-1.3-0.1-1.7-0.2c-0.4-0.1-0.8-0.3-1-0.6s-0.4-0.6-0.5-1s-0.1-0.8-0.2-1.3v-7.1h-2L214.9,38.3   L214.9,38.3z M223.8,38.3h2.5v1.6l0,0c0.4-0.7,0.9-1.2,1.6-1.5c0.7-0.3,1.4-0.5,2.2-0.5c0.9,0,1.8,0.2,2.5,0.5s1.3,0.8,1.8,1.4   c0.5,0.6,0.8,1.3,1,2s0.4,1.6,0.4,2.5c0,0.8-0.1,1.6-0.3,2.3c-0.2,0.8-0.5,1.4-0.9,2s-1,1-1.6,1.4s-1.4,0.5-2.3,0.5   c-0.4,0-0.8,0-1.2-0.1s-0.8-0.2-1.1-0.3c-0.4-0.2-0.7-0.4-1-0.6c-0.3-0.2-0.5-0.5-0.8-0.8l0,0v6H224V38.3H223.8z M233,44.3   c0-0.5-0.1-1.1-0.2-1.6c-0.1-0.5-0.4-1-0.6-1.4c-0.3-0.4-0.6-0.7-1-0.9s-0.9-0.4-1.4-0.4c-1.1,0-2,0.4-2.5,1.2s-0.8,1.8-0.8,3.1   c0,0.6,0.1,1.2,0.2,1.7c0.2,0.5,0.4,1,0.7,1.3c0.3,0.4,0.6,0.7,1.1,0.9c0.4,0.2,0.9,0.3,1.4,0.3c0.6,0,1.1-0.1,1.5-0.4   c0.4-0.2,0.8-0.6,1-1c0.3-0.4,0.5-0.8,0.6-1.3C233,45.3,233,44.8,233,44.3L233,44.3z M237.7,33.7h2.6v2.5h-2.6V33.7z M237.7,38.3   h2.6v12h-2.6V38.3L237.7,38.3z M242.7,33.7h2.6v16.6h-2.6V33.7L242.7,33.7z M253.4,50.6c-1,0-1.8-0.2-2.6-0.5   c-0.7-0.3-1.4-0.8-1.9-1.3c-0.5-0.6-0.9-1.2-1.2-2s-0.4-1.6-0.4-2.5s0.1-1.8,0.4-2.5s0.7-1.4,1.2-2s1.2-1,1.9-1.3s1.6-0.5,2.6-0.5   s1.8,0.2,2.6,0.5c0.8,0.3,1.4,0.8,1.9,1.3c0.5,0.6,0.9,1.2,1.2,2s0.4,1.6,0.4,2.5s-0.1,1.8-0.4,2.5c-0.3,0.8-0.7,1.4-1.2,2   s-1.2,1-1.9,1.3C255.3,50.5,254.4,50.6,253.4,50.6L253.4,50.6z M253.4,48.5c0.6,0,1.1-0.1,1.5-0.4c0.4-0.2,0.8-0.6,1.1-1   c0.3-0.4,0.5-0.9,0.6-1.4s0.2-1,0.2-1.5s-0.1-1-0.2-1.5s-0.3-1-0.6-1.4c-0.3-0.4-0.6-0.7-1.1-1c-0.4-0.2-0.9-0.4-1.5-0.4   s-1.1,0.1-1.5,0.4c-0.4,0.2-0.8,0.6-1.1,1s-0.5,0.8-0.6,1.4c-0.1,0.5-0.2,1-0.2,1.5s0.1,1,0.2,1.5s0.3,1,0.6,1.4s0.6,0.7,1.1,1   C252.3,48.4,252.9,48.5,253.4,48.5L253.4,48.5z M260.3,38.3h2v-3.6h2.6v3.6h2.4v2h-2.4v6.4c0,0.3,0,0.5,0,0.7s0.1,0.4,0.2,0.5   s0.2,0.2,0.4,0.3c0.2,0.1,0.4,0.1,0.7,0.1c0.2,0,0.4,0,0.6,0s0.4,0,0.6-0.1v2c-0.3,0-0.6,0.1-0.9,0.1s-0.6,0-0.9,0   c-0.7,0-1.3-0.1-1.7-0.2s-0.8-0.3-1-0.6s-0.4-0.6-0.5-1s-0.1-0.8-0.2-1.3v-7.1h-2L260.3,38.3L260.3,38.3z"></path>
	<path class="st2" d="M166.6,33.7h-12.1l-3.7-11.5L147,33.7h-12.1l9.8,7.1l-3.8,11.5l9.8-7.1l9.8,7.1l-3.7-11.5L166.6,33.7z"></path>
	<path class="st3" d="M157.6,43.4l-0.8-2.6l-6.1,4.4L157.6,43.4z"></path>
	<g class="st4">
		<path d="M14.3,46.2v4.5h-2.6V37.1h6.9c3,0.1,4.1,1,4.1,4.1c0,2-0.1,3.5-2.4,3.8V45c1.8,0.2,2.3,1.2,2.3,3.1v2.5h-2.6v-2.5    c0-1.1-0.5-1.9-1.7-2H14.3z M17.8,43.9c1.9,0,2.4-0.4,2.4-2.4c0-1.9-0.3-2.3-2.2-2.3h-3.6v4.6H17.8z"></path>
		<path d="M33.3,47.6c0,3-1.7,3.1-4.4,3.1c-3.6,0-4.4-1.2-4.4-4.8c0-3.4,0.5-4.9,4.4-4.9c3.9,0,4.4,1.1,4.4,5.3h-6.5    c0,2,0.1,2.7,2.1,2.7c1.3,0,2.2,0,2.2-1.4H33.3z M31,44.9c0-2-0.3-2.1-2.2-2.1c-2,0-2.1,0.4-2.1,2.1H31z"></path>
		<path d="M40.2,50.6h-3.4l-2.9-9.5h2.3l2.2,7.9h0.1l2.1-7.9H43L40.2,50.6z"></path>
		<path d="M46.2,39h-2.3v-1.9h2.3V39z M46.2,50.6h-2.3v-9.5h2.3V50.6z"></path>
		<path d="M56.7,47.6c0,3-1.7,3.1-4.4,3.1c-3.6,0-4.4-1.2-4.4-4.8c0-3.4,0.5-4.9,4.4-4.9c3.9,0,4.4,1.1,4.4,5.3h-6.5    c0,2,0.1,2.7,2.1,2.7c1.3,0,2.2,0,2.2-1.4H56.7z M54.4,44.9c0-2-0.3-2.1-2.2-2.1c-2,0-2.1,0.4-2.1,2.1H54.4z"></path>
		<path d="M69.7,50.6h-3.3L64.7,43h-0.1L63,50.6h-3.3l-2.2-9.5h2.2l1.6,7.9h0.1l1.8-7.9h2.8l1.8,7.9H68l1.6-7.9h2.2L69.7,50.6z"></path>
		<path d="M85.6,50.6v-1.5h-0.1c-0.5,1.3-1.7,1.6-3,1.6c-1.9,0-3.2-0.7-3.2-2.7v-6.9h2.3v6c0,1.4,0.1,1.9,1.6,1.9    c1.8,0,2.3-0.7,2.3-2.4v-5.5h2.3v9.5H85.6z"></path>
		<path d="M95.8,43.7c0-1.1-0.6-1.1-1.8-1.1s-2,0-2,1.2c0,0.9,0.3,1,2.2,1.1c2.2,0.1,4.2-0.1,4.2,3c0,2.6-2,2.8-4.4,2.8    c-2.6,0-4.3,0-4.3-3.1H92c0,1.4,0.4,1.5,2,1.5c1.4,0,2.2,0,2.2-1.3c0-0.8-0.1-1.2-2.4-1.3c-3.5-0.1-4.1-0.5-4.1-2.9    c0-2.6,1.9-2.7,4.3-2.7c1.9,0,4.1,0,4.1,2.7H95.8z"></path>
		<path d="M115.1,45.9c0,3.7-0.5,4.8-4.5,4.8s-4.5-1.2-4.5-4.8c0-3.7,0.5-4.9,4.5-4.9S115.1,42.2,115.1,45.9z M108.5,45.9    c0,2.5,0.2,3.1,2.2,3.1s2.2-0.6,2.2-3.1c0-2.6-0.2-3.1-2.2-3.1S108.5,43.4,108.5,45.9z"></path>
		<path d="M119.3,41.1v1.4h0.1c0.5-1.4,1.6-1.5,3-1.5c2.5,0,3.3,1,3.3,3.3v6.3h-2.3v-6c0-1.4-0.3-1.8-1.8-1.8c-2,0-2.3,0.9-2.3,2.6    v5.2H117v-9.5H119.3z"></path>
	</g>
</g>
</svg>